<svg width="827" height="290" viewBox="0 0 827 290" fill="none" xmlns="http://www.w3.org/2000/svg">
<path d="M824.503 166.727C823.449 164.336 821.657 162.346 819.389 161.048C813.433 156.95 801.461 150.762 794.445 149.019C787.068 146.8 779.41 145.652 771.707 145.609C759.759 145.609 749.431 147.598 740.722 151.576C732.006 155.369 725.279 160.579 720.541 167.207C715.981 173.691 713.594 181.454 713.722 189.38C713.516 197.555 716.465 205.496 721.958 211.554C727.456 217.613 735.036 221.687 744.696 223.775L771.419 230.03C777.102 231.351 781.46 233.528 784.493 236.561C786.064 238.004 787.307 239.766 788.142 241.728C788.976 243.691 789.381 245.809 789.331 247.941C789.412 251.144 788.671 254.314 787.179 257.149C785.686 259.984 783.493 262.39 780.807 264.137C775.316 267.93 767.644 269.826 757.792 269.826C750.904 269.843 744.038 269.078 737.323 267.546C730.665 265.831 724.26 263.252 718.272 259.875C716.085 258.46 711.342 256.792 708.757 257.104C707.778 257.173 706.822 257.434 705.945 257.873C705.067 258.312 704.285 258.92 703.642 259.661C702.304 261.189 701.418 263.06 701.085 265.064C700.902 267.212 701.292 269.37 702.214 271.318C703.575 273.61 707.676 276.546 710.035 277.786C716.718 281.515 723.892 284.288 731.345 286.022C739.899 288.137 748.682 289.189 757.493 289.155C774.165 289.155 787.619 285.365 797.855 277.786C808.091 270.206 813.202 259.605 813.187 245.98C813.187 237.073 810.346 229.777 804.663 224.095C799.18 218.412 791.22 214.335 780.785 211.863L754.073 205.619C748.39 204.29 744.22 202.11 741.564 199.076C739.065 195.933 737.755 192.009 737.866 187.995C737.78 184.711 738.514 181.458 740.003 178.529C741.491 175.6 743.687 173.09 746.391 171.224C752.279 167.076 760.338 165.001 770.567 165.001C776.72 164.987 782.844 165.848 788.755 167.559C794.426 168.963 805.136 174.539 809.991 177.787C812.644 179.492 815.02 180.249 817.098 180.057C819.114 179.979 821.033 179.172 822.5 177.787C823.824 176.472 824.716 174.785 825.057 172.95C825.626 170.877 825.429 168.668 824.503 166.727Z" fill="white"/>
<path d="M680.476 145.597C678.792 145.334 677.071 145.435 675.429 145.895C673.788 146.354 672.264 147.161 670.961 148.261C668.503 150.342 666.987 153.563 666.411 157.925L648.223 273.533C647.47 278.271 648.039 281.968 649.928 284.625C651.818 287.282 654.755 288.606 658.74 288.599C663.098 288.599 664.792 287.534 667.264 285.477C669.879 282.898 671.492 279.472 671.814 275.813L690.002 160.194C691.067 153.482 688.254 146.46 680.476 145.597Z" fill="white"/>
<path d="M630.718 145.342C619.465 145.566 608.513 149.021 599.168 155.294C593.022 159.407 587.9 164.875 584.198 171.277L585.807 160.75C586.56 156.005 585.992 152.403 584.102 149.945C582.212 147.488 579.282 146.238 575.312 146.195C571.817 146.034 568.383 147.147 565.647 149.327C563.19 151.409 561.577 154.534 560.81 158.704L542.622 273.779C541.869 278.517 542.437 282.215 544.326 284.871C546.223 287.329 549.256 288.561 553.426 288.569C557.787 288.569 561.197 287.524 563.655 285.436C566.312 283.348 567.924 280.222 568.492 276.059L578.721 211.244C580.81 198.927 584.979 189.075 591.23 181.687C597.68 174.292 608.197 169.934 622.78 168.613L629.035 167.761C633.78 167.377 637.097 166.145 638.987 164.064C641.061 161.975 642.101 158.658 642.108 154.112C642.108 150.915 641.352 148.614 639.839 147.292C638.273 145.822 635.236 145.151 630.718 145.342Z" fill="white"/>
<path d="M510.315 153.281C502.543 148.166 491.931 145.609 478.477 145.609C470.155 145.652 461.863 146.603 453.747 148.443C445.545 150.108 437.608 152.882 430.156 156.69C427.432 157.97 425.084 159.93 423.337 162.38C422.24 164.273 421.746 166.454 421.92 168.635C422.066 170.632 422.863 172.526 424.189 174.026C425.802 175.401 427.771 176.292 429.868 176.594C432.423 176.921 435.014 176.421 437.263 175.166C443.14 171.901 449.461 169.507 456.027 168.059C462.356 166.537 468.845 165.775 475.355 165.79C487.111 165.79 495.259 168.631 499.798 174.314C504.344 179.812 505.765 187.771 504.06 198.192L502.856 205.864H483.027C465.02 205.864 450.237 207.38 438.68 210.413C427.13 213.255 418.606 217.709 413.108 223.775C407.589 229.664 404.829 237.534 404.829 247.387C404.739 255.049 406.915 262.566 411.083 268.995C415.393 275.209 421.149 280.28 427.855 283.774C434.903 287.39 442.724 289.244 450.646 289.176C457.239 289.181 463.781 288.027 469.974 285.766C476.271 283.268 481.982 279.491 486.745 274.674C489.488 271.92 491.853 268.814 493.778 265.436L492.425 274.11C491.863 278.841 492.435 282.442 494.14 284.914C496.022 287.372 498.864 288.601 502.664 288.601C506.157 288.765 509.591 287.655 512.328 285.479C514.793 283.199 516.214 279.977 516.59 275.815L527.959 205.033C529.856 193.099 529.384 182.771 526.542 174.048C523.876 165.363 518.097 157.968 510.315 153.281ZM498.658 232.587C497.755 239.967 495.019 247.004 490.698 253.055C486.859 258.431 481.792 262.815 475.92 265.841C470.238 268.877 463.886 270.441 457.444 270.391C450.656 270.528 444.028 268.319 438.68 264.137C433.388 259.782 430.735 253.623 430.721 245.661C430.721 239.793 432.429 235.151 435.846 231.734C439.447 228.325 445.226 225.956 453.182 224.627C461.145 223.114 472.041 222.358 485.872 222.358H500.267L498.658 232.587Z" fill="white"/>
<path d="M383.678 266.714C382.427 266.759 381.186 266.952 379.98 267.29C378.092 267.502 376.191 267.595 374.291 267.567C366.91 267.567 361.7 265.485 358.66 261.323C355.619 256.954 354.863 249.939 356.39 240.279L378.84 98.2248C379.593 93.4939 379.025 88.7346 377.136 86.078C375.246 83.4213 372.309 82.0965 368.324 82.1036C364.657 81.9431 361.047 83.0451 358.095 85.2256C355.623 87.314 354.106 91.6009 353.545 95.9553L330.519 240.567C328.054 256.485 329.951 268.614 336.209 276.954C342.645 285.094 352.97 289.168 367.184 289.175C368.888 289.175 370.881 289.079 373.161 288.887C375.193 288.785 377.201 288.401 379.128 287.747C381.825 287.157 384.235 285.651 385.947 283.485C387.844 281.216 388.792 278.083 388.792 274.109C388.792 271.072 388.313 269.09 387.364 268.142C386.88 267.664 386.303 267.291 385.669 267.045C385.035 266.8 384.357 266.687 383.678 266.714Z" fill="white"/>
<path d="M282.102 153.012C273.009 148.089 262.02 145.628 249.135 145.628C238.853 145.516 228.671 147.65 219.3 151.882C210.409 155.849 202.463 161.66 195.987 168.931C189.212 176.564 184 185.451 180.644 195.089C177.131 205.721 175.4 216.86 175.518 228.056C175.518 240.565 177.887 251.462 182.625 260.746C187.398 269.686 194.719 277.006 203.659 281.779C212.95 286.709 223.942 289.174 236.636 289.174C246.892 289.32 257.062 287.282 266.47 283.196C275.385 279.155 283.326 273.243 289.752 265.86C296.522 258.228 301.735 249.345 305.095 239.712C308.774 229.21 310.601 218.15 310.497 207.023C310.497 194.322 308.033 183.425 303.103 174.333C298.405 165.276 291.086 157.846 282.102 153.012ZM278.692 237.72C275.518 246.589 270.021 254.442 262.773 260.458C255.954 265.956 247.522 268.705 237.478 268.705C226.297 268.705 217.485 265.295 211.043 258.476C204.784 251.65 201.659 241.794 201.666 228.908C201.514 218.056 203.341 207.268 207.058 197.071C210.659 187.602 215.965 180.118 222.976 174.62C229.987 168.938 238.511 166.096 248.549 166.096C259.736 166.096 268.456 169.509 274.707 176.336C281.143 183.155 284.364 193.008 284.371 205.893C284.497 216.765 282.57 227.563 278.692 237.72Z" fill="white"/>
<path d="M152.419 96.9447C141.232 87.6676 125.21 83.0256 104.354 83.0185H43.8331C40.1655 82.8619 36.5551 83.9676 33.6042 86.1511C31.1322 88.2324 29.5197 91.4538 28.7668 95.8153L0.466645 273.681C-0.0945244 278.419 1.29433 281.783 3.18383 284.624C5.27934 287.273 8.40839 288.598 12.571 288.598C16.9254 288.598 20.2391 287.554 22.5122 285.466C24.9771 283.2 26.4937 279.882 27.062 275.514L37.8662 207.619H93.5819C118.216 207.619 136.977 201.653 149.862 189.719C162.932 177.593 169.468 160.137 169.468 139.48C169.468 121.643 163.785 106.044 152.419 96.9447ZM131.109 175.185C122.954 182.601 111.014 186.309 95.2867 186.309H41.2759L53.785 104.659H101.818C115.649 104.659 126.073 107.404 133.091 112.895C140.109 118.386 143.615 129.237 143.608 141.185C143.608 155.562 139.438 167.606 131.099 175.185H131.109Z" fill="white"/>
<path d="M810.533 81.8907C814.337 81.8907 818.247 79.6637 818.247 74.9648C818.247 72.301 816.649 68.2095 810.533 68.2095C802.648 68.2095 791.087 68.0923 780.4 67.9431C765.11 67.7727 755.915 68.039 749.521 68.039C705.836 68.039 703.527 63.2442 707.967 36.6064C709.032 30.2133 710.748 22.7335 712.825 12.0144C713.763 6.68686 711.696 0.911743 705.836 0.911743C698.91 0.911743 697.844 6.94258 697.322 9.75553C686.801 66.4407 689.406 68.039 627.521 68.039C623.259 68.039 620.595 70.4968 620.595 74.9648C620.595 79.4328 622.726 81.8906 628.586 81.8906C677.365 81.8906 683.556 80.2924 677.067 114.922C676.315 118.932 679.731 124.532 683.556 124.532C691.451 124.532 692.689 116.818 693.049 114.922C699.925 78.6941 696.246 81.3579 810.533 81.8907Z" fill="white"/>
</svg>
